<?xml version="1.0" standalone="no"?><!DOCTYPE svg PUBLIC "-//W3C//DTD SVG 1.1//EN" "http://www.w3.org/Graphics/SVG/1.1/DTD/svg11.dtd"><svg t="1689842384907" class="icon" viewBox="0 0 1024 1024" version="1.1" xmlns="http://www.w3.org/2000/svg" p-id="7950" xmlns:xlink="http://www.w3.org/1999/xlink" width="200" height="200"><path d="M554.666667 925.866667c-12.8 0-21.333333-4.266667-29.866667-12.8l-409.6-413.866667c-8.533333-8.533333-12.8-21.333333-12.8-29.866667l8.533333-332.8c0-8.533333 8.533333-21.333333 17.066667-29.866666s21.333333-12.8 29.866667-12.8l328.533333 21.333333c8.533333 0 21.333333 4.266667 29.866667 12.8l396.8 409.6c12.8 12.8 17.066667 29.866667 8.533333 46.933333-4.266667 17.066667-21.333333 25.6-38.4 25.6l-247.466667 17.066667-38.4 264.533333c-4.266667 17.066667-12.8 29.866667-29.866666 34.133334H554.666667zM192 452.266667l332.8 341.333333 29.866667-209.066667c4.266667-21.333333 17.066667-34.133333 38.4-38.4l192-12.8-320-332.8-268.8-17.066666-4.266667 268.8z" fill="#34495E" p-id="7951"></path></svg>